<svg xmlns="http://www.w3.org/2000/svg" version="1.1" xmlns:xlink="http://www.w3.org/1999/xlink" xmlns:svgjs="http://svgjs.dev/svgjs" width="1500" height="1500" viewBox="0 0 1500 1500"><rect width="1500" height="1500" fill="#ffffff"></rect><g transform="matrix(0.6666666666666666,0,0,0.6666666666666666,249.39393939393938,616.1796908585359)"><svg viewBox="0 0 396 106" data-background-color="#ffffff" preserveAspectRatio="xMidYMid meet" height="401" width="1500" xmlns="http://www.w3.org/2000/svg" xmlns:xlink="http://www.w3.org/1999/xlink"><g id="tight-bounds" transform="matrix(1,0,0,1,0.2400000000000091,0.06092058227631014)"><svg viewBox="0 0 395.52 105.87815883544735" height="105.87815883544735" width="395.52"><g><svg viewBox="0 0 576.073978865523 154.21129711592837" height="105.87815883544735" width="395.52"><g transform="matrix(1,0,0,1,180.5539788655231,21.31284931196985)"><svg viewBox="0 0 395.52 111.58559849198868" height="111.58559849198868" width="395.52"><g id="textblocktransform"><svg viewBox="0 0 395.52 111.58559849198868" height="111.58559849198868" width="395.52" id="textblock"><g><svg viewBox="0 0 395.52 111.58559849198868" height="111.58559849198868" width="395.52"><g transform="matrix(1,0,0,1,0,0)"><svg width="395.52" viewBox="1.2 -36.5 159.12 44.9" height="111.58559849198868" data-palette-color="#3c91e7"><path d="M1.2 1L1.2-35.5 5.7-35.5 8.3-16.6 8.6-16.6 10.95-36.5 15.8-36.5 15.8 0 12.5 0 13.6-33.05 13.4-33.05 9.05-9.05 7.55-9.05 4-30.5 3.8-30.5 3.8 1 1.2 1ZM22.2 0L19.25-2.1 19.25-27.5 21.4-29.1 27.65-29.1 29.65-27.7 29.65-1.8 26.5 0 22.2 0ZM23.05-3.15L25.65-3.15Q25.95-3.15 26.02-3.23 26.1-3.3 26.1-3.45L26.1-3.45 26.6-26.05Q26.6-26.3 26.52-26.4 26.45-26.5 26.15-26.5L26.15-26.5 23.05-26.5Q22.6-26.5 22.6-26.05L22.6-26.05 22.6-3.45Q22.6-3.3 22.67-3.23 22.75-3.15 23.05-3.15L23.05-3.15ZM34.14 0L34.14-28.1Q35.09-28.7 36.47-28.93 37.84-29.15 40.55-29.15L40.55-29.15Q41.89-29.15 42.75-28.48 43.59-27.8 43.59-26.75L43.59-26.75 43.55 0 40.45 0 40.74-25.8Q40.74-25.95 40.67-26 40.59-26.05 40.3-26.1L40.3-26.1 37.34-26.1 37.05 0 34.14 0ZM50.64 0Q49.44 0 48.77-0.48 48.09-0.95 48.09-1.8L48.09-1.8 48.09-26.9Q48.09-29.1 50.64-29.1L50.64-29.1 55.84-29.1Q56.79-29.1 57.39-28.33 57.99-27.55 57.99-26.55L57.99-26.55 57.99-14.5 55.94-12.9 51.54-13.15 51.49-3.25Q51.49-2.85 51.89-2.85L51.89-2.85 54.84-2.8 55.69-6.1 57.84-6.1 57.84 0 50.64 0ZM51.39-15.9L54.19-15.9Q54.44-15.9 54.54-16 54.64-16.1 54.64-16.45L54.64-16.45 54.94-25.75Q54.94-26.2 54.49-26.2L54.49-26.2 51.59-26.2Q51.29-26.2 51.22-26.1 51.14-26 51.14-25.75L51.14-25.75 51.39-15.9ZM63.29 8.4L60.59 6.55 65.24-0.7 60.49-29.05 64.34-29.05 66.44-7.35 66.99-7.35 69.09-29.05 72.49-29.05 68.24-2.05 66.69 2.75 63.29 8.4ZM81.69 1L81.69-35.5 86.19-35.5 88.79-16.6 89.09-16.6 91.44-36.5 96.29-36.5 96.29 0 92.99 0 94.09-33.05 93.89-33.05 89.54-9.05 88.04-9.05 84.49-30.5 84.29-30.5 84.29 1 81.69 1ZM102.53 0Q101.13 0 100.18-0.68 99.23-1.35 99.23-2.35L99.23-2.35 99.28-14.55Q99.23-15.6 99.86-16.23 100.48-16.85 101.48-16.85L101.48-16.85 105.68-16.55 105.83-25.95 105.23-26.25 99.83-26.6 99.83-29.1 106.43-29.1Q107.83-29.1 108.43-28.38 109.03-27.65 109.03-25.85L109.03-25.85 108.88-2.95 109.78-2.45 109.78 0 102.53 0ZM105.43-2.9L105.68-3.3 105.58-13.8 102.78-13.8 102.53-13.5 102.33-3.3Q102.33-3.15 102.41-3.1 102.48-3.05 102.78-3L102.78-3 105.43-2.9ZM113.18 0L113.18-3.2 118.78-3.2 117.78-13.75 113.18-15 113.18-27.15Q113.18-27.85 113.71-28.48 114.23-29.1 114.83-29.1L114.83-29.1 121.68-29.1 121.68-26.65 115.93-25.85 116.58-17.5 121.68-16.15 121.68-2.45Q121.68-1.6 120.81-0.8 119.93 0 119.03 0L119.03 0 113.18 0ZM128.43 0L126.28-2.45 126.63-26.4 124.48-26.4 124.48-27.9 126.63-29.05 127.48-35.5 129.88-35.5 129.88-29.1 134.78-29.1 134.78-26.1 129.78-26.1 129.78-3.6 132.63-2.7 133.13-6.85 134.88-6.85 134.88 0 128.43 0ZM140.18 0Q138.98 0 138.3-0.48 137.63-0.95 137.63-1.8L137.63-1.8 137.63-26.9Q137.63-29.1 140.18-29.1L140.18-29.1 145.38-29.1Q146.33-29.1 146.93-28.33 147.53-27.55 147.53-26.55L147.53-26.55 147.53-14.5 145.48-12.9 141.08-13.15 141.03-3.25Q141.03-2.85 141.43-2.85L141.43-2.85 144.38-2.8 145.23-6.1 147.38-6.1 147.38 0 140.18 0ZM140.93-15.9L143.73-15.9Q143.98-15.9 144.08-16 144.18-16.1 144.18-16.45L144.18-16.45 144.48-25.75Q144.48-26.2 144.03-26.2L144.03-26.2 141.13-26.2Q140.83-26.2 140.75-26.1 140.68-26 140.68-25.75L140.68-25.75 140.93-15.9ZM151.67 0L151.67-28.7Q152.72-28.95 153.8-29.05 154.87-29.15 157.27-29.15L157.27-29.15Q158.62-29.15 159.47-28.48 160.32-27.8 160.32-26.75L160.32-26.75 160.32-22.5 157.72-22.5 157.47-25.8Q157.47-25.95 157.4-26 157.32-26.05 157.02-26.1L157.02-26.1 154.87-26.35 154.97 0 151.67 0Z" opacity="1" transform="matrix(1,0,0,1,0,0)" fill="#3c91e7" class="wordmark-text-0" data-fill-palette-color="primary" id="text-0"></path></svg></g></svg></g></svg></g></svg></g><g><svg viewBox="0 0 154.21129711592837 154.21129711592837" height="154.21129711592837" width="154.21129711592837"><g><svg xmlns="http://www.w3.org/2000/svg" xmlns:xlink="http://www.w3.org/1999/xlink" version="1.1" x="0" y="0" viewBox="0 0 100 100" enable-background="new 0 0 100 100" xml:space="preserve" height="154.21129711592837" width="154.21129711592837" class="icon-icon-0" data-fill-palette-color="accent" id="icon-0"><path d="M19.207 45.567v-4.28c0-0.432 0.35-0.781 0.782-0.781s0.781 0.35 0.781 0.781v4.28c0 0.432-0.35 0.781-0.781 0.781S19.207 45.999 19.207 45.567zM12.62 50.351c-0.432 0-0.781 0.35-0.781 0.781v4.279c0 0.432 0.35 0.781 0.781 0.781s0.781-0.35 0.781-0.781v-4.279C13.401 50.7 13.052 50.351 12.62 50.351zM23.938 46.349c0.432 0 0.782-0.35 0.782-0.781v-4.28c0-0.432-0.35-0.781-0.782-0.781s-0.781 0.35-0.781 0.781v4.28C23.157 45.999 23.507 46.349 23.938 46.349zM39.557 46.349c0.431 0 0.781-0.35 0.781-0.781v-4.28c0-0.432-0.35-0.781-0.781-0.781-0.432 0-0.782 0.35-0.782 0.781v4.28C38.775 45.999 39.125 46.349 39.557 46.349zM28.574 46.349c0.432 0 0.781-0.35 0.781-0.781v-4.28c0-0.432-0.35-0.781-0.781-0.781s-0.781 0.35-0.781 0.781v4.28C27.793 45.999 28.143 46.349 28.574 46.349zM33.552 46.349c0.432 0 0.782-0.35 0.782-0.781v-4.28c0-0.432-0.35-0.781-0.782-0.781-0.431 0-0.781 0.35-0.781 0.781v4.28C32.771 45.999 33.121 46.349 33.552 46.349zM43.172 50.351c-0.432 0-0.781 0.35-0.781 0.781v4.279c0 0.432 0.35 0.781 0.781 0.781s0.782-0.35 0.782-0.781v-4.279C43.954 50.7 43.604 50.351 43.172 50.351zM32.189 50.351c-0.432 0-0.781 0.35-0.781 0.781v4.279c0 0.432 0.35 0.781 0.781 0.781s0.781-0.35 0.781-0.781v-4.279C32.97 50.7 32.621 50.351 32.189 50.351zM38.194 50.351c-0.431 0-0.781 0.35-0.781 0.781v4.279c0 0.432 0.35 0.781 0.781 0.781 0.432 0 0.782-0.35 0.782-0.781v-4.279C38.976 50.7 38.625 50.351 38.194 50.351zM16.571 50.351c-0.432 0-0.782 0.35-0.782 0.781v4.279c0 0.432 0.35 0.781 0.782 0.781 0.431 0 0.781-0.35 0.781-0.781v-4.279C17.352 50.7 17.002 50.351 16.571 50.351zM26.184 50.351c-0.432 0-0.781 0.35-0.781 0.781v4.279c0 0.432 0.35 0.781 0.781 0.781s0.782-0.35 0.782-0.781v-4.279C26.965 50.7 26.615 50.351 26.184 50.351zM45.562 46.349c0.432 0 0.781-0.35 0.781-0.781v-4.28c0-0.432-0.35-0.781-0.781-0.781s-0.782 0.35-0.782 0.781v4.28C44.78 45.999 45.13 46.349 45.562 46.349zM21.206 50.351c-0.432 0-0.782 0.35-0.782 0.781v4.279c0 0.432 0.35 0.781 0.782 0.781 0.431 0 0.781-0.35 0.781-0.781v-4.279C21.987 50.7 21.637 50.351 21.206 50.351zM27.412 30.663c-0.432 0-0.781 0.351-0.781 0.781v4.28c0 0.432 0.35 0.781 0.781 0.781s0.782-0.35 0.782-0.781v-4.28C28.193 31.014 27.843 30.663 27.412 30.663zM33.417 30.663c-0.432 0-0.782 0.351-0.782 0.781v4.28c0 0.432 0.35 0.781 0.782 0.781 0.431 0 0.781-0.35 0.781-0.781v-4.28C34.198 31.014 33.848 30.663 33.417 30.663zM22.434 30.663c-0.432 0-0.781 0.351-0.781 0.781v4.28c0 0.432 0.35 0.781 0.781 0.781s0.781-0.35 0.781-0.781v-4.28C23.215 31.014 22.866 30.663 22.434 30.663zM50.54 46.349c0.432 0 0.782-0.35 0.782-0.781v-4.28c0-0.432-0.35-0.781-0.782-0.781s-0.781 0.35-0.781 0.781v4.28C49.758 45.999 50.108 46.349 50.54 46.349zM13.848 30.663c-0.432 0-0.782 0.351-0.782 0.781v4.28c0 0.432 0.35 0.781 0.782 0.781 0.431 0 0.781-0.35 0.781-0.781v-4.28C14.629 31.014 14.279 30.663 13.848 30.663zM17.799 30.663c-0.432 0-0.781 0.351-0.781 0.781v4.28c0 0.432 0.35 0.781 0.781 0.781s0.781-0.35 0.781-0.781v-4.28C18.58 31.014 18.23 30.663 17.799 30.663zM55.176 46.349c0.432 0 0.781-0.35 0.781-0.781v-4.28c0-0.432-0.35-0.781-0.781-0.781s-0.781 0.35-0.781 0.781v4.28C54.395 45.999 54.744 46.349 55.176 46.349zM44.4 30.663c-0.432 0-0.781 0.351-0.781 0.781v4.28c0 0.432 0.35 0.781 0.781 0.781s0.782-0.35 0.782-0.781v-4.28C45.182 31.014 44.832 30.663 44.4 30.663zM59.126 46.349c0.432 0 0.781-0.35 0.781-0.781v-4.28c0-0.432-0.35-0.781-0.781-0.781s-0.781 0.35-0.781 0.781v4.28C58.345 45.999 58.694 46.349 59.126 46.349zM52.986 30.663c-0.432 0-0.781 0.351-0.781 0.781v4.28c0 0.432 0.35 0.781 0.781 0.781s0.781-0.35 0.781-0.781v-4.28C53.768 31.014 53.418 30.663 52.986 30.663zM49.036 30.663c-0.432 0-0.782 0.351-0.782 0.781v4.28c0 0.432 0.35 0.781 0.782 0.781 0.431 0 0.781-0.35 0.781-0.781v-4.28C49.817 31.014 49.467 30.663 49.036 30.663zM39.422 30.663c-0.431 0-0.781 0.351-0.781 0.781v4.28c0 0.432 0.35 0.781 0.781 0.781 0.432 0 0.782-0.35 0.782-0.781v-4.28C40.204 31.014 39.854 30.663 39.422 30.663zM41.703 75.917c0.431 0 0.781-0.35 0.781-0.781v-4.28c0-0.432-0.35-0.781-0.781-0.781-0.432 0-0.782 0.35-0.782 0.781v4.28C40.921 75.567 41.271 75.917 41.703 75.917zM35.698 75.917c0.431 0 0.781-0.35 0.781-0.781v-4.28c0-0.432-0.35-0.781-0.781-0.781-0.432 0-0.782 0.35-0.782 0.781v4.28C34.916 75.567 35.266 75.917 35.698 75.917zM24.374 66.034c0.432 0 0.782-0.35 0.782-0.781v-4.28c0-0.432-0.35-0.781-0.782-0.781-0.431 0-0.781 0.35-0.781 0.781v4.28C23.592 65.685 23.942 66.034 24.374 66.034zM51.316 75.917c0.432 0 0.781-0.35 0.781-0.781v-4.28c0-0.432-0.35-0.781-0.781-0.781-0.432 0-0.782 0.35-0.782 0.781v4.28C50.535 75.567 50.884 75.917 51.316 75.917zM55.267 75.917c0.432 0 0.781-0.35 0.781-0.781v-4.28c0-0.432-0.35-0.781-0.781-0.781-0.433 0-0.781 0.35-0.781 0.781v4.28C54.485 75.567 54.834 75.917 55.267 75.917zM46.681 75.917c0.431 0 0.781-0.35 0.781-0.781v-4.28c0-0.432-0.35-0.781-0.781-0.781-0.432 0-0.782 0.35-0.782 0.781v4.28C45.899 75.567 46.249 75.917 46.681 75.917zM100 19.348v61.306C100 91.338 91.338 100 80.652 100H19.348C8.662 100 0 91.338 0 80.653V19.348C0 8.662 8.662 0 19.348 0h61.305C91.338 0 100 8.662 100 19.348zM10.853 37.352h44.72v-7.944h-44.72V37.352zM16.993 39.249v7.944h44.721v-7.944H16.993zM9.625 57.038h44.721v-7.946H9.625V57.038zM21.379 58.935v7.944H66.1v-7.944H21.379zM57.854 68.818H13.133v7.943h44.721V68.818zM90.244 49.39c0-14.843-12.032-26.874-26.874-26.874-5.853 0-11.265 1.877-15.679 5.054h7.882 1.838v1.838 7.944 0.061h4.303 1.838v1.837 7.944 1.838h-1.838-5.531v0.061 7.946 0.06H66.1h1.838v1.837 7.944 1.838H66.1h-6.407v0.102 7.188c1.203 0.164 2.43 0.257 3.678 0.257C78.212 76.264 90.244 64.231 90.244 49.39zM29.692 75.917c0.432 0 0.782-0.35 0.782-0.781v-4.28c0-0.432-0.35-0.781-0.782-0.781s-0.781 0.35-0.781 0.781v4.28C28.911 75.567 29.261 75.917 29.692 75.917zM16.128 75.917c0.432 0 0.782-0.35 0.782-0.781v-4.28c0-0.432-0.35-0.781-0.782-0.781s-0.781 0.35-0.781 0.781v4.28C15.347 75.567 15.697 75.917 16.128 75.917zM47.807 50.351c-0.432 0-0.782 0.35-0.782 0.781v4.279c0 0.432 0.35 0.781 0.782 0.781 0.431 0 0.781-0.35 0.781-0.781v-4.279C48.588 50.7 48.238 50.351 47.807 50.351zM20.079 75.917c0.432 0 0.781-0.35 0.781-0.781v-4.28c0-0.432-0.35-0.781-0.781-0.781s-0.781 0.35-0.781 0.781v4.28C19.298 75.567 19.647 75.917 20.079 75.917zM24.714 75.917c0.432 0 0.782-0.35 0.782-0.781v-4.28c0-0.432-0.35-0.781-0.782-0.781-0.431 0-0.781 0.35-0.781 0.781v4.28C23.933 75.567 24.283 75.917 24.714 75.917zM54.926 66.034c0.432 0 0.781-0.35 0.781-0.781v-4.28c0-0.432-0.35-0.781-0.781-0.781s-0.781 0.35-0.781 0.781v4.28C54.145 65.685 54.494 66.034 54.926 66.034zM28.324 66.034c0.432 0 0.781-0.35 0.781-0.781v-4.28c0-0.432-0.35-0.781-0.781-0.781s-0.781 0.35-0.781 0.781v4.28C27.543 65.685 27.893 66.034 28.324 66.034zM49.947 66.034c0.432 0 0.782-0.35 0.782-0.781v-4.28c0-0.432-0.35-0.781-0.782-0.781-0.431 0-0.781 0.35-0.781 0.781v4.28C49.166 65.685 49.516 66.034 49.947 66.034zM63.512 66.034c0.432 0 0.781-0.35 0.781-0.781v-4.28c0-0.432-0.35-0.781-0.781-0.781s-0.781 0.35-0.781 0.781v4.28C62.73 65.685 63.08 66.034 63.512 66.034zM51.758 50.351c-0.432 0-0.781 0.35-0.781 0.781v4.279c0 0.432 0.35 0.781 0.781 0.781s0.781-0.35 0.781-0.781v-4.279C52.539 50.7 52.189 50.351 51.758 50.351zM59.561 66.034c0.433 0 0.782-0.35 0.782-0.781v-4.28c0-0.432-0.35-0.781-0.782-0.781-0.432 0-0.781 0.35-0.781 0.781v4.28C58.779 65.685 59.129 66.034 59.561 66.034zM43.942 66.034c0.432 0 0.782-0.35 0.782-0.781v-4.28c0-0.432-0.35-0.781-0.782-0.781-0.431 0-0.781 0.35-0.781 0.781v4.28C43.161 65.685 43.511 66.034 43.942 66.034zM32.959 66.034c0.432 0 0.782-0.35 0.782-0.781v-4.28c0-0.432-0.35-0.781-0.782-0.781-0.431 0-0.781 0.35-0.781 0.781v4.28C32.178 65.685 32.528 66.034 32.959 66.034zM37.938 66.034c0.431 0 0.781-0.35 0.781-0.781v-4.28c0-0.432-0.35-0.781-0.781-0.781-0.432 0-0.782 0.35-0.782 0.781v4.28C37.156 65.685 37.506 66.034 37.938 66.034z" fill="#3c91e7" data-fill-palette-color="accent"></path></svg></g></svg></g></svg></g><defs></defs></svg><rect width="395.52" height="105.87815883544735" fill="none" stroke="none" visibility="hidden"></rect></g></svg></g></svg>